<?xml version="1.0" encoding="utf-8"?>
<!-- Generator: Adobe Illustrator 22.0.1, SVG Export Plug-In . SVG Version: 6.00 Build 0)  -->
<svg version="1.1" id="Layer_1" xmlns="http://www.w3.org/2000/svg" xmlns:xlink="http://www.w3.org/1999/xlink" x="0px" y="0px"
	 viewBox="0 0 512 512" style="enable-background:new 0 0 512 512;" xml:space="preserve">
<style type="text/css">
	.st0{fill:#BE67DB;}
</style>
<g transform="translate(0.000000,512.000000) scale(0.100000,-0.100000)">
	<path class="st0" d="M1220,4877c-92-31-156-71-222-138c-63-65-119-169-137-257c-8-37-11-431-11-1290c0-1362-2-1302,62-1426
		c43-82,148-185,229-225c130-64,41-61,1845-61c1143,0,1658,3,1700,11c104,19,197,70,278,151c39,40,83,96,98,124
		c60,113,58,51,58,1429c0,1018-3,1270-14,1310c-48,182-199,333-381,381c-41,11-364,14-1745,14l-1695-1L1220,4877z M4630,4455
		c63-32,60,0,58-828l-3-755l-300,351c-383,448-405,472-479,510c-58,30-67,32-171,32c-101,0-114-2-165-28c-30-16-68-40-84-55
		s-210-244-431-509l-402-481l-149,149c-163,164-208,194-314,209c-77,11-153-1-228-35c-48-22-107-76-370-338l-312-312l2,1015
		c3,946,4,1017,20,1040c10,13,28,30,40,37c18,10,363,12,1641,13C4410,4470,4604,4468,4630,4455z"/>
	<path class="st0" d="M1765,4235c-81-33-131-70-181-132c-67-82-88-148-89-273c0-98,2-110,32-173c160-337,627-338,785-2
		c23,51,31,84,35,148c12,184-74,335-235,414c-71,35-82,38-181,41C1836,4260,1819,4258,1765,4235z"/>
	<path class="st0" d="M503,3335c-17-55-137-446-264-870L6,1695l-1-126v-126l42-85c50-100,128-180,217-222c62-29,3384-922,3468-932
		c126-15,278,37,373,127c91,86,105,118,219,479c58,184,106,340,106,347c0,10-340,13-1612,15l-1613,3l-74,23c-150,46-263,115-367,224
		c-97,101-155,203-200,353c-17,55-19,128-24,860l-5,800L503,3335z"/>
</g>
</svg>
