<?xml version="1.0" encoding="utf-8"?>
<!-- Generator: Adobe Illustrator 22.0.1, SVG Export Plug-In . SVG Version: 6.00 Build 0)  -->
<svg version="1.1" id="Layer_1" xmlns="http://www.w3.org/2000/svg" xmlns:xlink="http://www.w3.org/1999/xlink" x="0px" y="0px"
	 viewBox="0 0 441 437" style="enable-background:new 0 0 441 437;" xml:space="preserve">
<style type="text/css">
	.st0{fill:#BE67DB;}
	.st1{fill:#BE67DB;stroke:#BE67DB;stroke-width:10;stroke-miterlimit:10;}
</style>
<g>
	<path class="st0" d="M165.3,26.2c7.2,1.9,14.4,4,20.5,8.6c11.9,9.1,18.4,21,18.5,36c0.2,29.2,0.2,58.5,0,87.7
		c-0.1,24.6-20,44.5-44.7,44.7c-28.9,0.1-57.7,0.1-86.6,0c-22.7,0-40.6-15-45.1-37.3c-0.1-0.6-0.4-1.1-0.7-1.7c0-33,0-66,0-99
		c0.2-0.7,0.6-1.3,0.7-2c2.4-12,8.3-22.1,18.6-28.6c6-3.7,13.1-5.6,19.7-8.4C99.3,26.2,132.3,26.2,165.3,26.2z M115.8,173.2
		c14.1,0,28.2,0,42.3,0c9.9,0,16.1-6.2,16.1-16.2c0-28.2,0-56.5,0-84.7c0-9.9-6.2-16.1-16.2-16.1c-28.2,0-56.5,0-84.7,0
		c-9.9,0-16.1,6.2-16.1,16.2c0,28.2,0,56.5,0,84.7c0,9.9,6.2,16.1,16.2,16.1C87.5,173.2,101.7,173.2,115.8,173.2z"/>
	<path class="st0" d="M411.3,164.2c-2,7.6-4.3,15.1-9.3,21.3c-9,11.2-20.6,17.4-34.9,17.6c-29.5,0.2-59,0.2-88.5,0
		c-24.3-0.1-44.2-20.2-44.3-44.6c-0.1-29-0.1-58,0-87c0-22.2,15.2-40.3,36.9-44.6c0.7-0.1,1.4-0.5,2-0.7c33,0,66,0,99,0
		c0.8,0.3,1.6,0.6,2.4,0.8c13.3,2.8,23.7,9.8,30.3,21.7c2.9,5.1,4.2,11,6.3,16.6C411.3,98.2,411.3,131.2,411.3,164.2z M264.3,114.7
		c0,14.1,0,28.2,0,42.3c0,9.9,6.2,16.1,16.2,16.1c28.2,0,56.5,0,84.7,0c9.9,0,16.1-6.3,16.1-16.2c0-28.2,0-56.5,0-84.7
		c0-9.9-6.2-16.1-16.2-16.1c-28.2,0-56.5,0-84.7,0c-9.9,0-16.1,6.2-16.1,16.2C264.2,86.5,264.3,100.6,264.3,114.7z"/>
	<path class="st0" d="M27.3,272.2c2-7.5,4.2-14.8,9.1-21.1c9-11.4,20.6-17.7,35.1-17.9c29.5-0.2,59-0.2,88.5,0
		c24.2,0.1,44.1,20.1,44.3,44.3c0.2,29.1,0.1,58.2,0,87.3c0,22-15,40.2-36.6,44.6c-0.8,0.2-1.6,0.5-2.4,0.8c-33,0-66,0-99,0
		c-0.8-0.3-1.6-0.6-2.4-0.8c-13.2-2.9-23.7-9.8-30.3-21.7c-2.9-5.1-4.2-11-6.3-16.6C27.3,338.2,27.3,305.2,27.3,272.2z M115.8,380.2
		c14.1,0,28.2,0,42.3,0c9.9,0,16.1-6.3,16.1-16.2c0-28.2,0-56.5,0-84.7c0-9.9-6.3-16.1-16.2-16.1c-28.2,0-56.5,0-84.7,0
		c-9.9,0-16.1,6.2-16.1,16.2c0,28.2,0,56.5,0,84.7c0,9.9,6.3,16.1,16.2,16.1C87.6,380.2,101.7,380.2,115.8,380.2z"/>
	<g>
		<g>
			<path class="st1" d="M334.4,321.6l64-64c3.2-3.2,3.2-8.4,0-11.6c-3.2-3.2-8.4-3.2-11.6,0l-64,64l-64-64c-3.2-3.2-8.4-3.2-11.6,0
				c-3.2,3.2-3.2,8.4,0,11.6l64,64l-64,64c-3.2,3.2-3.2,8.4,0,11.6c3.2,3.2,8.4,3.2,11.6,0l64-64l64,64c3.2,3.2,8.4,3.2,11.6,0
				c3.2-3.2,3.2-8.4,0-11.6L334.4,321.6z"/>
		</g>
	</g>
</g>
</svg>
