<?xml version="1.0" encoding="utf-8"?>
<!-- Generator: Adobe Illustrator 22.0.1, SVG Export Plug-In . SVG Version: 6.00 Build 0)  -->
<svg version="1.1" id="Capa_1" xmlns="http://www.w3.org/2000/svg" xmlns:xlink="http://www.w3.org/1999/xlink" x="0px" y="0px"
	 viewBox="0 0 26 26" style="enable-background:new 0 0 26 26;" xml:space="preserve">
<style type="text/css">
	.st0{fill:#AFAFAF;}
</style>
<g>
	<path class="st0" d="M8.1,11.2L6.4,15c0,0.1-0.1,0.2-0.3,0.2H5.3c-0.1,0-0.2-0.1-0.3-0.2l-0.8-1.8C4.1,13,4.1,12.9,4,12.7
		c0,0.2-0.1,0.3-0.2,0.5L3,15c0,0.1-0.1,0.1-0.3,0.1H1.9c-0.1,0-0.2-0.1-0.3-0.2L0,11.1c0-0.1,0-0.2,0-0.2s0.1-0.1,0.2-0.1h1
		c0.1,0,0.2,0.1,0.3,0.2l0.7,2c0.1,0.2,0.1,0.3,0.2,0.5c0.1-0.1,0.1-0.3,0.2-0.5l0.8-2c0-0.1,0.1-0.2,0.3-0.2h0.8
		c0.1,0,0.2,0.1,0.3,0.2l0.8,1.9c0.1,0.2,0.1,0.3,0.2,0.5c0-0.1,0.1-0.3,0.2-0.5L6.7,11c0-0.1,0.1-0.2,0.3-0.2h0.9
		c0.1,0,0.2,0,0.2,0.1C8.1,11.1,8.1,11.1,8.1,11.2z M17,11.2L15.3,15c0,0.1-0.1,0.2-0.3,0.2h-0.9c-0.1,0-0.2-0.1-0.3-0.2L13,13.2
		c0.1-0.2,0-0.4,0-0.5c-0.1,0.2-0.1,0.4-0.2,0.5L11.9,15c0,0.1-0.1,0.1-0.3,0.1h-0.9c-0.1,0-0.2-0.1-0.3-0.2L9,11.2
		C9,11.1,9,11,9,11c0.1-0.1,0.1-0.1,0.2-0.1h1c0.1,0,0.2,0.1,0.3,0.2l0.7,1.9c0.1,0.2,0.1,0.3,0.2,0.5c0.1-0.1,0.1-0.3,0.2-0.5
		l0.8-1.9c0-0.1,0.1-0.2,0.3-0.2h0.8c0.1,0,0.2,0.1,0.3,0.2l0.8,1.9c0.1,0.2,0.1,0.3,0.2,0.5c0.1-0.1,0.1-0.3,0.2-0.5l0.7-1.9
		c0-0.1,0.1-0.2,0.3-0.2h0.9c0.1,0,0.2,0,0.2,0.1C17,11.1,17,11.1,17,11.2z M25.9,11.2L24.3,15c0,0.1-0.1,0.2-0.3,0.2h-0.9
		c-0.1,0-0.2-0.1-0.3-0.2L22,13.2c0-0.2,0-0.4-0.1-0.5c-0.1,0.2-0.1,0.4-0.2,0.5L20.8,15c0,0.1-0.1,0.1-0.3,0.1h-0.9
		c-0.1,0-0.2-0.1-0.3-0.2l-1.6-3.8c0-0.1,0-0.2,0-0.2s0.1-0.1,0.2-0.1h1c0.1,0,0.2,0.1,0.3,0.2l0.7,1.9c0.1,0.2,0.1,0.3,0.2,0.5
		c0.1-0.1,0.1-0.3,0.2-0.5l0.8-1.9c0-0.1,0.1-0.2,0.3-0.2h0.8c0.1,0,0.2,0.1,0.3,0.2l0.8,1.9c0.1,0.2,0.1,0.3,0.2,0.5
		c0-0.1,0.1-0.3,0.2-0.5l0.7-1.9c0-0.1,0.1-0.2,0.3-0.2h0.9c0.1,0,0.2,0,0.2,0.1C25.9,11.1,26,11.1,25.9,11.2z"/>
	<g>
		<path class="st0" d="M2.7,9C3,8.3,3.3,7.6,3.8,7c0,0,0.1,0,0.2,0h1.9C5.6,7.6,5.5,8.3,5.3,9h2.1C7.6,8.3,7.7,7.6,8,7h10
			c0.2,0.6,0.4,1.3,0.6,2h2.1c-0.1-0.7-0.3-1.4-0.5-2H22c0.1,0,0.1,0,0.2,0c0.4,0.6,0.8,1.3,1.1,2h2.1C23.6,3.8,18.7,0,13,0
			S2.3,3.8,0.6,9H2.7z M20.5,5h-1.2c-0.3-0.5-0.5-1-0.9-1.5C19.2,3.9,19.9,4.4,20.5,5z M13,2c1.6,0,3,1.2,4.1,3H8.9
			C10,3.2,11.4,2,13,2z M7.5,3.5C7.2,4,6.9,4.5,6.6,5H5.4C6,4.4,6.7,3.9,7.5,3.5z"/>
		<path class="st0" d="M23.2,17c-0.3,0.7-0.6,1.4-1.1,2c-0.1,0-0.1,0-0.2,0H20c0.2-0.6,0.4-1.3,0.5-2h-2.1c-0.2,0.7-0.3,1.4-0.6,2H8
			c-0.2-0.6-0.4-1.3-0.6-2H5.3c0.1,0.7,0.3,1.4,0.5,2H4c-0.1,0-0.1,0-0.2,0c-0.4-0.6-0.8-1.3-1.1-2H0.6c1.7,5.2,6.6,9,12.4,9
			s10.7-3.8,12.4-9H23.2z M5.4,21h1.2c0.3,0.5,0.5,1.1,0.8,1.5C6.7,22.1,6,21.6,5.4,21z M13,24c-1.6,0-3-1.2-4.1-3H17
			C15.9,22.8,14.5,24,13,24z M18.4,22.5c0.3-0.5,0.6-1,0.9-1.5h1.2C19.9,21.6,19.2,22.1,18.4,22.5z"/>
	</g>
</g>
</svg>
