<?xml version="1.0" encoding="utf-8"?>
<!-- Generator: Adobe Illustrator 22.0.1, SVG Export Plug-In . SVG Version: 6.00 Build 0)  -->
<svg version="1.1" id="Layer_1" xmlns="http://www.w3.org/2000/svg" xmlns:xlink="http://www.w3.org/1999/xlink" x="0px" y="0px"
	 viewBox="0 0 373 368" style="enable-background:new 0 0 373 368;" xml:space="preserve">
<style type="text/css">
	.st0{fill:#C9C9C9;}
</style>
<g>
	<path class="st0" d="M26.8,184.9C26.8,96.5,98.3,25,186.7,25s159.9,71.4,159.9,159.9c0,88.4-71.4,159.9-159.9,160
		C98.4,344.9,26.8,273.3,26.8,184.9z M198.7,196.9c1.7,0,2.9,0,4.1,0c10.1,0,20.2,0,30.4,0c8,0,13.4-4.8,13.5-11.9
		c0.1-7.2-5.4-12.1-13.7-12.1c-6.1,0-12.2,0-18.4,0c-5.2,0-10.4,0-16,0c0-1.6,0-2.8,0-4c0-10.2,0-20.5,0-30.7
		c0-7.7-4.9-13.1-11.8-13.2c-7.1-0.1-12.2,5.3-12.2,13.2c0,10.2,0,20.5,0,30.7c0,1.3,0,2.6,0,4.1c-12.1,0-23.6,0-35,0
		c-7.6,0-13,5.1-12.9,12.1c0,6.9,5.5,11.9,13.1,11.9c10.2,0,20.5,0,30.7,0c1.3,0,2.6,0,4.2,0c0,12.1,0,23.7,0,35.3
		c0,4.5,1.6,8,5.3,10.5c3.8,2.6,7.9,2.9,12.1,0.8c4.4-2.3,6.6-6,6.6-10.9C198.8,220.9,198.7,209.2,198.7,196.9z"/>
</g>
</svg>
