<?xml version="1.0" encoding="utf-8"?>
<!-- Generator: Adobe Illustrator 22.0.1, SVG Export Plug-In . SVG Version: 6.00 Build 0)  -->
<svg version="1.1" id="Layer_1" xmlns="http://www.w3.org/2000/svg" xmlns:xlink="http://www.w3.org/1999/xlink" x="0px" y="0px"
	 viewBox="0 0 200 200" style="enable-background:new 0 0 200 200;" xml:space="preserve">
<style type="text/css">
	.st0{fill:#8E5DE1;}
</style>
<g>
	<path class="st0" d="M79.1,19.2c3,0.8,5.9,1.6,8.4,3.6c4.9,3.7,7.6,8.6,7.6,14.8c0.1,12,0.1,24.1,0,36.1c0,10.1-8.2,18.3-18.4,18.4
		c-11.9,0.1-23.7,0-35.6,0c-9.3,0-16.7-6.2-18.5-15.4c0-0.2-0.2-0.5-0.3-0.7c0-13.6,0-27.2,0-40.7c0.1-0.3,0.2-0.6,0.3-0.8
		c1-5,3.4-9.1,7.7-11.8c2.5-1.5,5.4-2.3,8.1-3.4C51.9,19.2,65.5,19.2,79.1,19.2z M82.8,55.6c0-5.8,0-11.5,0-17.3
		c0-4.3-2.5-6.8-6.8-6.8c-11.5,0-23,0-34.5,0c-4.3,0-6.8,2.5-6.8,6.8c0,11.5,0,23,0,34.5c0,4.3,2.5,6.8,6.8,6.8c11.5,0,23,0,34.5,0
		c4.4,0,6.8-2.5,6.8-6.9C82.8,67.1,82.8,61.3,82.8,55.6z"/>
	<path class="st0" d="M164.3,19.2c3,0.8,5.9,1.6,8.4,3.6c4.9,3.7,7.6,8.6,7.6,14.8c0.1,12,0.1,24.1,0,36.1
		c0,10.1-8.2,18.3-18.4,18.4c-12,0.1-24.1,0.1-36.1,0c-10.1,0-18.3-8.3-18.4-18.4c0-11.9,0-23.7,0-35.6c0-9.3,6.2-16.7,15.4-18.5
		c0.2,0,0.5-0.2,0.7-0.3C137.1,19.2,150.7,19.2,164.3,19.2z M168,55.6c0-5.8,0-11.5,0-17.3c0-4.3-2.5-6.8-6.8-6.8
		c-11.5,0-23,0-34.5,0c-4.3,0-6.8,2.5-6.8,6.8c0,11.5,0,23,0,34.5c0,4.3,2.5,6.8,6.8,6.8c11.5,0,23,0,34.5,0c4.3,0,6.8-2.5,6.8-6.8
		C168,67.1,168,61.4,168,55.6z"/>
	<path class="st0" d="M22.3,120.4c0.8-3.1,1.7-6.1,3.7-8.7c3.7-4.7,8.5-7.3,14.4-7.3c12.1-0.1,24.3-0.1,36.4,0
		c9.9,0.1,18.2,8.3,18.2,18.2c0.1,12.1,0.1,24.3,0,36.4c-0.1,9.9-8.3,18.1-18.2,18.2c-12,0.1-24,0-35.9,0c-9.1,0-16.6-6.2-18.4-15.2
		c-0.1-0.3-0.2-0.6-0.3-0.8C22.3,147.6,22.3,134,22.3,120.4z M58.9,116.7c-5.9,0-11.7,0-17.6,0c-4.1,0-6.6,2.6-6.6,6.6
		c0,11.6,0,23.2,0,34.8c0,4.1,2.6,6.6,6.6,6.6c11.6,0,23.2,0,34.8,0c4.1,0,6.6-2.6,6.6-6.6c0-11.6,0-23.2,0-34.8
		c0-4.1-2.6-6.6-6.6-6.6C70.4,116.7,64.6,116.7,58.9,116.7z"/>
	<path class="st0" d="M107.5,140.6c0-5.8,0-11.6,0-17.4c0-10.7,8.2-18.8,18.9-18.8c11.7,0,23.4,0,35.2,0c10.6,0,18.8,8.2,18.8,18.7
		c0,11.8,0,23.5,0,35.3c0,10.6-8.2,18.7-18.8,18.8c-11.7,0-23.4,0-35.2,0c-10.7,0-18.8-8.2-18.9-18.8
		C107.5,152.4,107.5,146.5,107.5,140.6z M144,116.7c-5.9,0-11.7,0-17.6,0c-4.1,0-6.6,2.6-6.7,6.6c0,11.6,0,23.2,0,34.8
		c0,4.1,2.6,6.7,6.6,6.7c11.6,0,23.2,0,34.8,0c4.1,0,6.6-2.6,6.7-6.6c0-11.6,0-23.2,0-34.8c0-4.1-2.6-6.6-6.6-6.7
		C155.6,116.7,149.8,116.7,144,116.7z"/>
</g>
</svg>
