<?xml version="1.0" encoding="utf-8"?>
<!-- Generator: Adobe Illustrator 22.0.1, SVG Export Plug-In . SVG Version: 6.00 Build 0)  -->
<svg version="1.1" id="Layer_1" xmlns="http://www.w3.org/2000/svg" xmlns:xlink="http://www.w3.org/1999/xlink" x="0px" y="0px"
	 viewBox="0 0 200 200" style="enable-background:new 0 0 200 200;" xml:space="preserve">
<style type="text/css">
	.st0{fill:#8E5DE1;}
</style>
<g>
	<path class="st0" d="M106.2,181.1c-3.4,0-6.8,0-10.2,0c-0.5-0.1-0.9-0.2-1.4-0.3c-3.4-0.5-6.8-0.7-10.1-1.4
		C43.1,170.8,15,131.8,20,89.9c2.7-22.3,12.9-40.5,30.4-54.5c18.7-14.9,40.2-20.3,63.7-16.7c15.6,2.4,29.4,9.1,41.1,19.6
		c14.1,12.6,22.9,28.3,26.2,46.9c0.5,3,0.8,6,1.3,9c0,3.4,0,6.8,0,10.2c-0.1,0.4-0.2,0.8-0.3,1.2c-1,12.6-4.6,24.4-11.2,35.2
		c-13,21.2-31.7,34.3-56.2,38.9C112.2,180.4,109.2,180.7,106.2,181.1z M171.6,99.3c-0.1-38.9-31.7-70.5-70.6-70.5
		c-38.9,0-70.5,31.6-70.5,70.5c0,38.9,31.7,70.6,70.7,70.5C140.1,169.9,171.7,138.2,171.6,99.3z"/>
	<path class="st0" d="M104.3,92c-1.3,0-2.2,0-3.1,0c-7.9,0-15.8,0-23.8,0c-4.3,0-7.1-3.7-5.7-7.5c0.9-2.3,2.8-3.6,5.6-3.6
		c8.9,0,17.8,0,26.6,0c0.6,0,1.2,0,2,0c-0.2-0.7-0.4-1.2-0.6-1.7c-2.4-4.7-6.1-7.4-11.5-7.5c-5.5-0.1-11.1,0-16.6,0
		c-4.3,0-7-3.8-5.6-7.6c0.8-2.2,2.8-3.5,5.4-3.5c6.8,0,13.5,0,20.3,0c9.3,0,18.5,0,27.8,0c2.3,0,4,1,5,3c1,2,0.8,3.9-0.4,5.7
		c-1.1,1.7-2.8,2.4-4.8,2.4c-3,0-6.1,0-9.1,0c-0.5,0-1,0-1.5,0c1.1,3.1,2.2,6,3.4,9.3c2.2,0,4.6,0,7.1,0c4.3,0,7.1,4,5.4,7.7
		c-1,2.3-2.9,3.3-5.3,3.4c-2.4,0-4.9,0-7.3,0c-0.5,0-1.3,0.4-1.4,0.8c-3.8,9.2-10.5,14.4-20.3,15.7c-0.1,0-0.3,0.1-0.6,0.2
		c0.6,0.4,1,0.8,1.5,1.1c7.9,5.4,15.7,10.7,23.6,16.1c2.1,1.4,3.3,3.2,3,5.7c-0.6,4.2-5.1,6.2-8.7,3.8c-6.1-4.1-12.2-8.3-18.3-12.5
		c-7.3-5-14.6-10-21.9-14.9c-2-1.4-3.2-3.1-2.9-5.6c0.3-2.9,2.7-4.9,5.9-5c5.6,0,11.3,0.1,16.9-0.1C98.3,97.4,101.5,95.5,104.3,92z"
		/>
</g>
</svg>
