<?xml version="1.0" encoding="utf-8"?>
<!-- Generator: Adobe Illustrator 22.0.1, SVG Export Plug-In . SVG Version: 6.00 Build 0)  -->
<svg version="1.1" id="Layer_1" xmlns="http://www.w3.org/2000/svg" xmlns:xlink="http://www.w3.org/1999/xlink" x="0px" y="0px"
	 viewBox="0 0 407 346" style="enable-background:new 0 0 407 346;" xml:space="preserve">
<style type="text/css">
	.st0{fill:#BE67DB;}
</style>
<g>
	<path class="st0" d="M203.1,26c81.4,0,147.4,65.8,147.4,147.2S284.4,320.1,202.4,320c-80-0.1-145.9-66.4-145.9-146.8
		C56.5,92,122.2,26.1,203.1,26z M224.6,187c16.7,0,33.5,0,50.2,0c2,0,4-0.1,6-0.5c5.8-1.3,10.2-6.6,10.5-12.6
		c0.4-8.8-5.8-14.8-15.5-14.8c-26.1,0-52.2,0-78.3,0c-8.2,0-16.5-0.1-24.7,0c-7.2,0.1-12.4,3.8-14.2,10c-2.8,9.4,3.9,17.9,14.4,18
		C190.2,187.1,207.4,187,224.6,187z M224.6,106.1L224.6,106.1c-17.6,0-35.2-0.1-52.9,0.1c-7.9,0.1-13.9,6.2-13.9,13.8
		c0,7.5,6,14,13.8,14c35.4,0.1,70.7,0.1,106.1,0c8,0,13.8-6.5,13.6-14.4c-0.2-7.6-6.1-13.3-14.2-13.4
		C259.6,106.1,242.1,106.1,224.6,106.1z M224.7,239.8C224.7,239.9,224.7,239.9,224.7,239.8c17.6,0,35.2,0.1,52.9,0
		c8-0.1,13.8-6,13.8-13.7c0-7.9-5.9-14-14-14c-35.1-0.1-70.2-0.1-105.3,0.1c-2.9,0-6.2,1.3-8.6,3c-5,3.3-6.6,9.7-4.7,15.4
		c1.8,5.4,6.8,9.3,12.8,9.3C189.2,239.9,206.9,239.8,224.7,239.8z M115.7,172.9c0,7.9,6.2,14.3,14.2,14.4c7.8,0,14.4-6.5,14.3-14.3
		c-0.1-7.7-6.4-14.1-14.1-14.2C122.2,158.6,115.7,165,115.7,172.9z M130.3,211.8c-8-0.2-14.5,5.9-14.6,13.8
		c-0.1,8,5.9,14.4,13.9,14.6c7.7,0.3,14.5-6.3,14.5-14.1C144.2,218.5,138,212,130.3,211.8z M129.8,134.2c7.9,0.1,14.4-6.4,14.4-14.2
		c0-7.7-6.3-14.1-14-14.2c-7.8-0.2-14.4,6.2-14.4,14.1C115.6,127.9,121.7,134.1,129.8,134.2z"/>
</g>
</svg>
