<?xml version="1.0" standalone="no"?>
<!DOCTYPE svg PUBLIC "-//W3C//DTD SVG 20010904//EN"
 "http://www.w3.org/TR/2001/REC-SVG-20010904/DTD/svg10.dtd">
<svg version="1.0" xmlns="http://www.w3.org/2000/svg"
 width="512.000000pt" height="512.000000pt" viewBox="0 0 512.000000 512.000000"
 preserveAspectRatio="xMidYMid meet">
<metadata>
Created by potrace 1.16, written by Peter Selinger 2001-2019
</metadata>
<g transform="translate(0.000000,512.000000) scale(0.100000,-0.100000)"
fill="#ffffff" stroke="none">
<path d="M2405 4693 c-460 -38 -875 -208 -1226 -502 -361 -301 -619 -737 -714
-1204 -155 -763 123 -1563 715 -2059 805 -674 1955 -674 2760 0 361 302 620
738 715 1205 130 640 -39 1301 -464 1808 -354 424 -881 697 -1441 748 -108 10
-253 12 -345 4z m241 -1092 c49 -22 97 -78 113 -130 16 -54 16 -1128 0 -1182
-26 -85 -111 -149 -199 -149 -88 0 -173 64 -199 149 -16 54 -16 1128 0 1182
26 85 111 149 199 149 25 0 63 -9 86 -19z m3 -1710 c69 -35 121 -115 121 -185
0 -104 -104 -206 -210 -206 -106 0 -210 102 -210 206 0 69 52 149 119 184 48
26 130 26 180 1z"/>
</g>
</svg>
