<?xml version="1.0" encoding="utf-8"?>
<!-- Generator: Adobe Illustrator 22.0.1, SVG Export Plug-In . SVG Version: 6.00 Build 0)  -->
<svg version="1.1" id="Layer_1" xmlns="http://www.w3.org/2000/svg" xmlns:xlink="http://www.w3.org/1999/xlink" x="0px" y="0px"
	 viewBox="0 0 200 200" style="enable-background:new 0 0 200 200;" xml:space="preserve">
<style type="text/css">
	.st0{fill:#8E5DE1;}
</style>
<g>
	<path class="st0" d="M19.8,64.4c0-0.4,0-0.8,0-1.2c0.6-0.8,1.2-1.8,1.9-2.5C32.3,50,43,39.4,53.6,28.7c1-1,2-1.8,3.1-2.7
		c0.6,0,1.2,0,1.8,0c1,0.8,2,1.6,2.9,2.5c13.4,13.4,26.9,26.8,40.3,40.3c0.4,0.4,0.9,0.8,1.4,1.3c0.5-0.5,0.9-0.8,1.3-1.2
		C115,58,125.8,47.2,136.6,36.5c0.9-0.9,2.1-1.5,3.2-1.8c10.7-2.8,21.5-5.4,32.2-8.1c3.5-0.9,5.2,0.9,4.4,4.4
		c-2.7,10.8-5.4,21.5-8.1,32.2c-0.3,1.2-1,2.4-1.9,3.2c-10.7,10.8-21.5,21.5-32.2,32.3c-0.4,0.4-0.8,0.9-1.5,1.5
		c0.6,0.4,1.1,0.8,1.5,1.2c13.6,13.6,27.3,27.3,40.9,40.9c2.4,2.4,2.4,3.8,0,6.2c-10.9,10.9-21.8,21.9-32.8,32.8
		c-0.7,0.7-1.7,1.3-2.5,1.9c-0.4,0-0.8,0-1.2,0c-0.9-0.6-1.8-1.2-2.5-1.9c-13.6-13.6-27.3-27.2-40.9-40.9c-0.4-0.4-0.6-1-1-1.6
		c-0.2,0.1-0.4,0.2-0.7,0.2c-0.3,0.4-0.7,0.9-1,1.3c-12.2,12.2-24.4,24.4-36.6,36.7c-2.5,2.5-5.2,4.4-8.6,5.4
		c-1,0.3-1.9,0.5-2.9,0.8c-1.6,0-3.3,0-4.9,0c-0.1-0.1-0.1-0.2-0.2-0.2c-7.9-1.2-12.7-6.6-16.9-12.7c-1.3-2-1.7-4.5-2.6-6.8
		c0-1.6,0-3.3,0-4.9c0.1-0.1,0.2-0.1,0.2-0.2c0.7-4.9,3.3-8.7,6.7-12.1c12-11.9,24-23.9,35.9-35.9c0.4-0.4,0.8-0.9,1.4-1.5
		c-0.6-0.5-1.1-0.8-1.6-1.3C48.9,94.1,35.3,80.5,21.7,66.9C21,66.2,20.4,65.2,19.8,64.4z M81.4,117.6c0.3-0.4,0.6-0.9,1-1.4
		s0.9-1,1.4-1.4c1.5-1.4,3.3-1.5,4.5-0.3c1.3,1.2,1.2,3.1-0.2,4.6c-0.9,0.9-1.8,1.7-2.9,2.7c1.5,1.4,2.7,2.6,4,3.8
		c1.2,1.3,2.4,2.6,3.6,4c2.7-2.7,5.1-5.1,7.4-7.5c2-2,3.9-2.3,5.3-0.9s1.1,3.2-0.9,5.2c-2.4,2.4-4.8,4.8-7.1,7.1
		c2.6,2.6,5.1,5.1,7.7,7.7c0.8-0.9,1.6-1.8,2.6-2.7c1.5-1.4,3.3-1.4,4.5-0.2s1.2,3-0.2,4.5c-0.9,0.9-1.8,1.8-2.6,2.5
		c2.6,2.6,5.1,5.1,7.8,7.8c0.7-0.8,1.5-1.8,2.4-2.6c1.6-1.5,3.3-1.6,4.6-0.3c1.3,1.3,1.2,3-0.3,4.6c-0.8,0.9-1.7,1.7-2.5,2.4
		c2.6,2.6,5.1,5.1,7.7,7.7c1.4-1.4,2.9-3,4.5-4.6c1.2-1.2,2.3-2.4,3.6-3.5c1.4-1.2,3-1,4.1,0.2c1.1,1.1,1.2,2.7,0.1,4
		c-0.4,0.6-1,1.1-1.5,1.6c-2.3,2.3-4.6,4.5-6.6,6.6c2.1,2.1,4.1,4.1,5.9,5.9c6.1-6.1,12.3-12.3,18.9-18.9c-0.3-0.2-0.8-0.5-1.2-0.9
		c-7.2-7.1-14.3-14.3-21.5-21.5c-2-2-2.3-3.8-0.9-5.2c1.4-1.5,3.3-1.2,5.3,0.8c7.2,7.2,14.4,14.4,21.6,21.6c0.4,0.4,0.8,0.7,1,0.9
		c2.4-2.4,4.7-4.6,6.8-6.8C132,108.2,94.8,71,57.7,33.9c-2.2,2.2-4.5,4.5-7,7c0.3,0.3,0.9,0.6,1.3,1c22.8,22.8,45.7,45.7,68.5,68.5
		c0.5,0.5,1.1,1.1,1.5,1.7c0.7,1.2,0.5,2.7-0.5,3.7c-1,0.9-2.5,1.1-3.7,0.4c-0.6-0.4-1.2-1-1.7-1.5C93.3,91.9,70.5,69.1,47.7,46.3
		c-0.5-0.5-0.7-1.1-0.9-1.4c-6.6,6.6-12.9,12.9-19,19c1.8,1.8,3.7,3.7,5.9,5.9c0.7-0.8,1.5-1.7,2.4-2.6c1.6-1.5,3.3-1.6,4.6-0.3
		c1.3,1.3,1.2,3-0.3,4.6c-0.8,0.9-1.7,1.7-2.5,2.4c2.6,2.6,5.1,5.1,7.8,7.8c0.7-0.8,1.5-1.7,2.4-2.6c1.6-1.5,3.3-1.6,4.6-0.2
		c1.2,1.3,1.2,3-0.3,4.5c-0.9,0.9-1.8,1.8-2.5,2.5c2.6,2.6,5.1,5.1,7.6,7.7c2-2,4.2-4.2,6.4-6.4c0.7-0.7,1.4-1.5,2.3-2
		c1.2-0.8,2.4-0.6,3.4,0.3c1,0.8,1.4,2,0.9,3.2c-0.3,0.7-0.8,1.3-1.3,1.9c-2.5,2.5-5,5.1-7.4,7.5c2.6,2.6,5.1,5,7.8,7.7
		c0.8-0.8,1.6-1.8,2.5-2.7c1.5-1.4,3.3-1.4,4.5-0.2c1.2,1.2,1.2,3.1-0.2,4.5c-0.9,0.9-1.9,1.7-2.7,2.5
		C76.2,112.4,78.7,114.9,81.4,117.6z M89.1,134.8c-7-7-14-14-20.9-20.9c-8.7,8.7-17.5,17.5-26.2,26.2c4.3,4.3,8.7,8.7,13.3,13.3
		c0.2-0.3,0.5-0.8,0.9-1.2c4.5-4.5,9-9.1,13.6-13.6c0.4-0.4,0.9-0.9,1.4-1.2c1.8-1.2,4-0.3,4.6,1.8c0.4,1.5-0.4,2.5-1.4,3.5
		c-4.6,4.6-9.3,9.3-13.9,13.9c-0.4,0.4-0.7,0.8-0.9,0.9c1.1,1.3,2.2,2.5,3.1,3.6C71.6,152.3,80.4,143.5,89.1,134.8z M120.7,87.4
		c10.6-10.6,21.3-21.3,31.9-31.9c-1.7-1.6-3.4-3.4-5.3-5.2c-0.3,0.3-0.7,0.7-1.1,1.1c-5.3,5.3-10.6,10.6-16,15.9
		c-0.5,0.5-1,1-1.7,1.3c-1.3,0.7-2.5,0.4-3.5-0.6c-0.9-1-1.2-2.2-0.5-3.4c0.3-0.6,0.8-1.2,1.3-1.7c3-3,5.9-5.9,8.9-8.9
		c2.7-2.7,5.5-5.5,8.1-8.1c-1.2-1.2-2.2-2.4-3.2-3.5c-10.7,10.7-21.4,21.4-31.9,31.9C112,78.7,116.4,83.1,120.7,87.4z M37.5,145.2
		c-2.9,2.6-6,5.2-8.8,8.2c-3.2,3.5-3.7,9.2-1.4,13.4c1.8,3.5,4.6,6.1,7.8,8.3c4.3,2.9,10.3,2.8,14.1-0.4c3.2-2.7,6.2-5.8,9.1-8.6
		C51.2,158.9,44.2,151.9,37.5,145.2z M160.5,63.4c-1-1.1-2.1-2.2-3.1-3.3c-10.7,10.7-21.4,21.4-32,32c1,1,2,2.2,3,3.3
		C139.2,84.7,149.8,74.1,160.5,63.4z M145.9,39.5c5.9,5.9,11.8,11.8,17.6,17.6c0.6-2.5,1.3-5.1,1.9-7.7c0.1-0.3-0.1-0.9-0.4-1.2
		c-3.4-3.4-6.8-6.8-10.2-10.2c-0.3-0.3-0.8-0.5-1.2-0.5C151.1,38.1,148.5,38.8,145.9,39.5z M161.6,35.5c2,2,4,3.9,5.9,5.9
		c0.6-2.4,1.2-5,1.9-7.7c-0.4,0-0.7,0-0.8,0C166.2,34.3,163.9,34.9,161.6,35.5z"/>
	<path class="st0" d="M131.1,122.3c0,1.6-1.4,3-3.1,3c-1.6,0-3-1.4-3-3.1s1.4-3,3-3C129.7,119.3,131.1,120.7,131.1,122.3z"/>
	<path class="st0" d="M119.2,77c-1.6,0-3-1.4-3-3s1.4-3.1,3-3c1.6,0,3.1,1.5,3,3.1C122.3,75.5,120.9,77,119.2,77z"/>
</g>
</svg>
