<?xml version="1.0" encoding="utf-8"?>
<!-- Generator: Adobe Illustrator 22.0.1, SVG Export Plug-In . SVG Version: 6.00 Build 0)  -->
<svg version="1.1" id="Layer_1" xmlns="http://www.w3.org/2000/svg" xmlns:xlink="http://www.w3.org/1999/xlink" x="0px" y="0px"
	 viewBox="0 0 200 200" style="enable-background:new 0 0 200 200;" xml:space="preserve">
<style type="text/css">
	.st0{fill:#A03AD2;}
</style>
<g>
	<path class="st0" d="M99.5,177.5c-21.5,0-43,0-64.6,0c-8.7,0-14-5.2-14-13.9c0-43,0-86.1,0-129.1c0-8.8,5.2-14,14.1-14
		c42.9,0,85.8,0,128.7,0c8.9,0,14.2,5.2,14.2,14.2c0,41.8,0.1,83.5,0.1,125.3c0,1.7,0,3.3-0.1,5c-0.3,7.3-5.7,12.5-12.9,12.5
		C143.2,177.5,121.3,177.5,99.5,177.5z M79.8,31.5c-0.9,0-1.5,0-2.2,0c-14.1,0-28.1,0-42.2,0c-3.1,0-3.4,0.3-3.4,3.4
		c0,42.8,0,85.6,0,128.5c0,2.9,0.3,3.3,3.3,3.3c14.1,0,28.3,0,42.4,0c0.7,0,1.3,0,2.1,0C79.8,121.5,79.8,76.6,79.8,31.5z M90.9,93.4
		c25.5,0,50.7,0,76.1,0c0-0.9,0-1.7,0-2.4c0-18.6,0-37.2,0-55.9c0-3.4-0.2-3.6-3.6-3.6c-23.3,0-46.7,0-70,0c-0.8,0-1.6,0-2.5,0
		C90.9,52.2,90.9,72.7,90.9,93.4z"/>
</g>
</svg>
